# Blender v2.78 (sub 0) OBJ File: 'table.blend'
# www.blender.org
mtllib table.mtl
v 1.500001 1.000000 -1.499999
v 1.499999 1.000000 1.500001
v -1.500000 1.000000 -1.500000
v -1.500000 1.000000 1.499999
v 1.500001 1.250000 -1.499999
v 1.499999 1.250000 1.500001
v -1.500000 1.250000 -1.500000
v -1.500000 1.250000 1.499999
v 1.000000 1.000000 -0.999999
v 0.999999 1.000000 1.000001
v -1.000000 1.000000 1.000000
v -1.000000 1.000000 -1.000000
v 1.000000 -1.000000 -0.999999
v 0.999999 -1.000000 1.000001
v -1.000000 -1.000000 1.000000
v -1.000000 -1.000000 -1.000000
v 0.600000 1.000000 -1.000000
v 0.599999 1.000000 1.000000
v 0.600000 -1.000000 -1.000000
v 0.599999 -1.000000 1.000000
v -0.600000 1.000000 -1.000000
v -0.600000 1.000000 1.000000
v -0.600000 -1.000000 -1.000000
v -0.600000 -1.000000 1.000000
v 1.000000 1.000000 -0.599999
v -1.000000 1.000000 -0.600000
v 1.000000 -1.000000 -0.599999
v -1.000000 -1.000000 -0.600000
v 0.600000 -1.000000 -0.600000
v -0.600000 -1.000000 -0.600000
v 1.000000 1.000000 0.600001
v 1.000000 -1.000000 0.600001
v -1.000000 1.000000 0.600000
v -1.000000 -1.000000 0.600000
v 0.600000 -1.000000 0.600000
v -0.600000 -1.000000 0.600000
v -0.600000 1.000000 -0.600000
v -0.600000 1.000000 0.600000
v 0.600000 1.000000 -0.600000
v 0.600000 1.000000 0.600000
vn 0.0000 0.0000 -1.0000
vn 0.0000 1.0000 -0.0000
vn -0.0000 0.0000 1.0000
vn 1.0000 0.0000 0.0000
vn -1.0000 0.0000 -0.0000
vn 0.0000 -1.0000 0.0000
usemtl Material
s off
f 3//1 5//1 1//1
f 7//2 6//2 5//2
f 2//3 8//3 4//3
f 1//4 6//4 2//4
f 4//5 7//5 3//5
f 34//5 11//5 33//5
f 9//1 19//1 17//1
f 20//3 10//3 18//3
f 27//4 9//4 25//4
f 24//6 34//6 36//6
f 14//6 35//6 32//6
f 39//5 19//5 29//5
f 21//1 16//1 12//1
f 15//3 22//3 11//3
f 29//3 25//3 39//3
f 40//5 20//5 18//5
f 27//6 19//6 13//6
f 30//6 16//6 23//6
f 37//4 23//4 21//4
f 16//5 26//5 12//5
f 14//4 31//4 10//4
f 38//1 34//1 33//1
f 26//3 30//3 37//3
f 24//4 38//4 22//4
f 40//1 32//1 35//1
f 3//1 7//1 5//1
f 7//2 8//2 6//2
f 2//3 6//3 8//3
f 1//4 5//4 6//4
f 4//5 8//5 7//5
f 34//5 15//5 11//5
f 9//1 13//1 19//1
f 20//3 14//3 10//3
f 27//4 13//4 9//4
f 24//6 15//6 34//6
f 14//6 20//6 35//6
f 39//5 17//5 19//5
f 21//1 23//1 16//1
f 15//3 24//3 22//3
f 29//3 27//3 25//3
f 40//5 35//5 20//5
f 27//6 29//6 19//6
f 30//6 28//6 16//6
f 37//4 30//4 23//4
f 16//5 28//5 26//5
f 14//4 32//4 31//4
f 38//1 36//1 34//1
f 26//3 28//3 30//3
f 24//4 36//4 38//4
f 40//1 31//1 32//1
